<svg xmlns="http://www.w3.org/2000/svg" viewBox="0 0 43.01 43.01"><defs><style>.cls-1{fill:#e86b10;}.cls-2{fill:#fff;}</style></defs><g id="Laag_2" data-name="Laag 2"><g id="Logo_OrangePillApp_light"><g id="Orange_Pill" data-name="Orange Pill"><g id="Circle"><ellipse class="cls-1" cx="21.5" cy="21.5" rx="21.48" ry="21.53" transform="translate(-8.91 21.42) rotate(-44.85)"/></g><g id="Pill"><polygon class="cls-1" points="26.77 25.58 15.95 25.82 15.81 14.61 16.76 10.74 19.49 8.27 23.87 8.18 26.44 11.39 26.77 25.58"/><path class="cls-2" d="M21.66,10.7a5,5,0,0,1,2.93,2.82,2.33,2.33,0,0,0-.82-2.32A2.18,2.18,0,0,0,21.66,10.7Z"/><path class="cls-2" d="M27.8,20.8s0-.05,0-.08c0-.73,0-6.57,0-7.3a6.13,6.13,0,0,0-.69-2.68A6.42,6.42,0,0,0,20.7,7.3a6.28,6.28,0,0,0-5.36,4.58A16.25,16.25,0,0,0,15,15.71c0,.66,0,1.32,0,2,0,.17,0,8.53,0,8.69h0a16.51,16.51,0,0,0,.08,2.9,6.4,6.4,0,0,0,7.71,5.12,6,6,0,0,0,4.84-5A77.82,77.82,0,0,0,27.8,20.8Zm-1.92,4.54-9.16.05h-.31c0-2.81,0-10.17,0-11.36a8.93,8.93,0,0,1,.09-1.47,5,5,0,0,1,5-3.89,4.94,4.94,0,0,1,4.81,3.93c.17,1,.13,6.72.16,8,0,1.58,0,4.22,0,4.69Z"/></g></g></g></g></svg>