<?xml version="1.0" encoding="utf-8"?>
<!-- Generator: Adobe Illustrator 26.2.1, SVG Export Plug-In . SVG Version: 6.00 Build 0)  -->
<svg version="1.1" id="Layer_1" xmlns="http://www.w3.org/2000/svg" xmlns:xlink="http://www.w3.org/1999/xlink" x="0px" y="0px"
	 viewBox="0 0 588.7 595.3" style="enable-background:new 0 0 588.7 595.3;" xml:space="preserve">
<style type="text/css">
	.st0{fill:#F16C22;}
	.st1{opacity:0.38;fill:#F16C22;}
	.st2{fill:#AD9386;}
</style>
<g>
	<circle class="st0" cx="286.8" cy="946.9" r="286.8"/>
	<path d="M286.8,1183.5c1.1,0,2.3,0,3.5-0.1c23.2-1.1,45.2-10.6,62.3-26.3c20.1-18.4,38.4-41.2,38.4-41.2
		c18.5-19.2,42.8-78.4,42.8-78.4c5.5,0.9,12.8-2.4,12.8-2.4c15.5-10.1,23.8-41.1,23.8-41.1c7-22.9,6.4-57.9,6.4-57.9
		c-2.7-18-23.1-17.7-23.1-17.7s-8.5,5.2-9.1-30.6c0,0,0-46.2-3.3-56.6c0,0-5.9-36.4-28.6-59.8c0,0-8-11.4-23.2-24.4
		c-27.6-23.8-63.1-36.7-99.6-36.7l0,0h-6.3h0c-36.5,0-71.9,12.8-99.6,36.7C169,760,161,771.4,161,771.4
		c-22.8,23.4-28.6,59.8-28.6,59.8c-3.3,10.4-3.3,56.6-3.3,56.6c-0.7,35.8-9.1,30.6-9.1,30.6S99.7,918.1,97,936
		c0,0-0.6,35.1,6.4,57.9c0,0,8.2,31.1,23.8,41.1c0,0,7.3,3.4,12.8,2.4c0,0,24.3,59.2,42.8,78.4c0,0,18.3,22.8,38.4,41.2
		c17.1,15.7,39.1,25.2,62.3,26.3L286.8,1183.5z"/>
	<path class="st1" d="M288.8,723.3H285l0,0c-33.4,0-65.9,12.1-91.2,34.7C180,770.3,172.7,781,172.7,781
		c-20.8,22.1-26.2,56.5-26.2,56.5c-3,9.8-3,53.5-3,53.5s-0.8,20.5,5,23.9c0,0,8.4,1.8,18,1.1c6.5-0.5,12.7-2.9,17.8-7
		c0.1-0.1,0.1-0.1,0.2-0.2c6.1-4.8,13.5-7.4,21.2-7.6c9-0.2,24.6-0.5,33.5-0.7c6.5-0.1,12.9,0.8,19,3.1c0.1,0,0.2,0.1,0.3,0.1
		c4.1,1.6,7.5,4.5,9.8,8.2c1.7,2.6,3.9,6.1,5.5,8.2c0,0,2.6,4.8,10,5.3H294c7.3-0.5,10-5.3,10-5.3c1.6-2.1,3.8-5.6,5.4-8.2
		c2.3-3.7,5.7-6.6,9.8-8.2c0.1,0,0.2-0.1,0.3-0.1c6.1-2.3,12.5-3.2,19-3.1l33.5,0.7c7.7,0.2,15.2,2.8,21.2,7.6
		c0.2,0.2,0.5,0.4,0.7,0.5c4.1,3.3,8.9,5.5,14.1,6.2c10.8,1.5,21.2-0.8,21.2-0.8c5.8-3.4,5-23.9,5-23.9s0-43.6-3-53.5
		c0,0-5.4-34.4-26.2-56.5c0,0-7.3-10.8-21.2-23.1c-25.3-22.5-57.8-34.7-91.2-34.7h0H288.8"/>
	<path class="st1" d="M286.8,1051.4c-19.8-0.3-28.5,3.6-28.5,3.6c-7.1,3.3-12.8,6.5-17.4,9.5c-9.4,6.1-15.8,15.8-18.6,26.7
		c-1.4,5.6-5.2,5.3-5.2,5.3c-5,0-13.1-9.2-13.1-9.2c-21-16.8-39.1-60.5-39.1-60.5c-4.9-15.1-11.2-47.7-15.4-61.8
		c-1.2-4,2.4-8,6.4-6.9c0.3,0.1,0.6,0.2,0.8,0.3c0,0,9.9,37.8,20.7,40.1c0,0,11.8,2,40.4,1.6c0,0,40.8,2,49.7-10.9
		c0,0,3.3-2.6,12.5-29.9c0,0,1.5-5.6,6.8-5.6h2c5.3,0,6.8,5.6,6.8,5.6c9.2,27.3,12.5,29.9,12.5,29.9c8.9,12.8,49.7,10.9,49.7,10.9
		c28.6,0.3,40.4-1.6,40.4-1.6c10.9-2.3,20.7-40.1,20.7-40.1c0.2-0.1,0.5-0.2,0.8-0.3c4-1.1,7.6,2.9,6.4,6.9
		c-4.2,14.2-10.5,46.7-15.4,61.8c0,0-18.1,43.7-39.1,60.5c0,0-8.2,9.2-13.1,9.2c0,0-3.7,0.4-5.2-5.3c-2.8-10.9-9.2-20.5-18.6-26.7
		c-4.6-3-10.3-6.2-17.4-9.5c0,0-8.7-3.9-28.5-3.6H286.8z"/>
	<path class="st1" d="M115,989.7c0,0-10.1-42.8-3.8-49.4c0,0,2.7-3.7,11.6-4.1c3-0.1,5.5,2.1,5.7,5.1c0.9,11.7,2.4,40.8-3.8,50.3
		C124.8,991.5,116.3,995.6,115,989.7z"/>
	<path class="st1" d="M129.4,1000c0,0,0.1,0.1,0.1,0.1c0,0,11.1,19.9,3.2,22.6c0,0-8.8,4.9-10.5-12.5v-7.7
		C122.2,998.7,127.1,997,129.4,1000z"/>
	<path class="st1" d="M461.1,989.7c0,0,10.1-42.8,3.8-49.4c0,0-2.7-3.7-11.6-4.1c-3-0.1-5.5,2.1-5.7,5.1
		c-0.9,11.7-2.4,40.8,3.8,50.3C451.3,991.5,459.8,995.6,461.1,989.7z"/>
	<path class="st1" d="M446.7,1000c0,0-0.1,0.1-0.1,0.1c0,0-11.1,19.9-3.2,22.6c0,0,8.8,4.9,10.5-12.5v-7.7
		C453.9,998.7,449,997,446.7,1000z"/>
	<path class="st1" d="M287.8,1114.5c-8.9-0.3-10.5,8.9-10.5,8.9c-3.4,13.9-13.5,12.8-13.5,12.8c-21.1,0-24-25.2-24-25.2
		s-2.1-25.4,20.2-33.3c0,0,11.8-3.7,27.8-3.4h1.5c16-0.3,27.8,3.4,27.8,3.4c22.3,7.9,20.2,33.3,20.2,33.3s-2.8,25.2-24,25.2
		c0,0-10.1,1-13.5-12.8c0,0-1.6-9.2-10.5-8.9H287.8z"/>
	<path class="st0" d="M245.3,943.1c1-6.9-4.2-10.5-11.3-13l2.3-9.3l-5.6-1.4l-2.3,9c-1.5-0.4-3-0.7-4.5-1.1l2.3-9.1l-5.6-1.4
		l-2.3,9.3c-1.2-0.3-2.4-0.6-3.6-0.8l0,0l-7.8-1.9l-1.5,6c0,0,4.2,1,4.1,1c2.3,0.6,2.7,2.1,2.6,3.3l-2.6,10.6c0.2,0,0.4,0.1,0.6,0.2
		c-0.2,0-0.4-0.1-0.6-0.1l-3.7,14.8c-0.3,0.7-1,1.7-2.6,1.3c0.1,0.1-4.1-1-4.1-1l-2.8,6.5l7.4,1.8c1.4,0.3,2.7,0.7,4,1l-2.3,9.4
		l5.6,1.4l2.3-9.3c1.5,0.4,3,0.8,4.5,1.2l-2.3,9.2l5.6,1.4l2.3-9.4c9.6,1.8,16.9,1.1,19.9-7.6c2.5-7-0.1-11.1-5.2-13.7
		C241.8,950.5,244.6,948.1,245.3,943.1z M232.4,961.2c-1.7,7-13.6,3.2-17.4,2.3l3.1-12.4C221.9,952,234.2,953.9,232.4,961.2z
		 M234.1,943c-1.6,6.4-11.4,3.1-14.6,2.3l2.8-11.3C225.5,934.9,235.8,936.3,234.1,943z"/>
	<path class="st0" d="M379.6,943.1c1-6.9-4.2-10.5-11.3-13l2.3-9.3l-5.6-1.4l-2.3,9c-1.5-0.4-3-0.7-4.5-1.1l2.3-9.1l-5.6-1.4
		l-2.3,9.3c-1.2-0.3-2.4-0.6-3.6-0.8l0,0l-7.8-1.9l-1.5,6c0,0,4.2,1,4.1,1c2.3,0.6,2.7,2.1,2.6,3.3l-2.6,10.6c0.2,0,0.4,0.1,0.6,0.2
		c-0.2,0-0.4-0.1-0.6-0.1l-3.7,14.8c-0.3,0.7-1,1.7-2.6,1.3c0.1,0.1-4.1-1-4.1-1l-2.8,6.5l7.4,1.8c1.4,0.3,2.7,0.7,4,1l-2.3,9.4
		l5.6,1.4l2.3-9.3c1.5,0.4,3,0.8,4.5,1.2l-2.3,9.2l5.6,1.4l2.3-9.4c9.6,1.8,16.9,1.1,19.9-7.6c2.5-7-0.1-11.1-5.2-13.7
		C376.1,950.5,378.9,948.1,379.6,943.1z M366.7,961.2c-1.7,7-13.6,3.2-17.4,2.3l3.1-12.4C356.3,952,368.6,953.9,366.7,961.2z
		 M368.5,943c-1.6,6.4-11.4,3.1-14.6,2.3l2.8-11.3C359.9,934.9,370.1,936.3,368.5,943z"/>
</g>
<image style="overflow:visible;" width="582" height="610" xlink:href="Desktop/Screen Shot 2025-03-28 at 5.34.44 pm.png"  transform="matrix(1.036 0 0 1.036 914.7104 649.3478)">
</image>
<circle class="st0" cx="293.3" cy="297.6" r="286.8"/>
<path d="M293.3,534.2c1.1,0,2.3,0,3.5-0.1c23.2-1.1,45.2-10.6,62.3-26.3c20.1-18.4,38.4-41.2,38.4-41.2
	c18.5-19.2,42.8-78.4,42.8-78.4c5.5,0.9,12.8-2.4,12.8-2.4c15.5-10.1,23.8-41.1,23.8-41.1c7-22.9,6.4-57.9,6.4-57.9
	c-2.7-18-23.1-17.7-23.1-17.7s-8.5,5.2-9.1-30.6c0,0,0-46.2-3.3-56.6c0,0-5.9-36.4-28.6-59.8c0,0-8-11.4-23.2-24.4
	c-27.6-23.8-63.1-36.7-99.6-36.7l0,0h-6.3h0c-36.5,0-71.9,12.8-99.6,36.7c-15.1,13-23.2,24.4-23.2,24.4
	c-22.8,23.4-28.6,59.8-28.6,59.8c-3.3,10.4-3.3,56.6-3.3,56.6c-0.7,35.8-9.1,30.6-9.1,30.6s-20.3-0.3-23.1,17.7
	c0,0-0.6,35.1,6.4,57.9c0,0,8.2,31.1,23.8,41.1c0,0,7.3,3.4,12.8,2.4c0,0,24.3,59.2,42.8,78.4c0,0,18.3,22.8,38.4,41.2
	c17.1,15.7,39.1,25.2,62.3,26.3L293.3,534.2z"/>
<path class="st2" d="M295.3,73.9h-3.8l0,0c-33.4,0-65.9,12.1-91.2,34.7c-13.9,12.3-21.2,23.1-21.2,23.1
	c-20.8,22.1-26.2,56.5-26.2,56.5c-3,9.8-3,53.5-3,53.5s-0.8,20.5,5,23.9c0,0,8.4,1.8,18,1.1c6.5-0.5,12.7-2.9,17.8-7
	c0.1-0.1,0.1-0.1,0.2-0.2c6.1-4.8,13.5-7.4,21.2-7.6c9-0.2,24.6-0.5,33.5-0.7c6.5-0.1,12.9,0.8,19,3.1c0.1,0,0.2,0.1,0.3,0.1
	c4.1,1.6,7.5,4.5,9.8,8.2c1.7,2.6,3.9,6.1,5.5,8.2c0,0,2.6,4.8,10,5.3h10.3c7.3-0.5,10-5.3,10-5.3c1.6-2.1,3.8-5.6,5.4-8.2
	c2.3-3.7,5.7-6.6,9.8-8.2c0.1,0,0.2-0.1,0.3-0.1c6.1-2.3,12.5-3.2,19-3.1l33.5,0.7c7.7,0.2,15.2,2.8,21.2,7.6
	c0.2,0.2,0.5,0.4,0.7,0.5c4.1,3.3,8.9,5.5,14.1,6.2c10.8,1.5,21.2-0.8,21.2-0.8c5.8-3.4,5-23.9,5-23.9s0-43.6-3-53.5
	c0,0-5.4-34.4-26.2-56.5c0,0-7.3-10.8-21.2-23.1C365,86,332.5,73.9,299.1,73.9h0H295.3"/>
<path class="st2" d="M293.3,402.1c-19.8-0.3-28.5,3.6-28.5,3.6c-7.1,3.3-12.8,6.5-17.4,9.5c-9.4,6.1-15.8,15.8-18.6,26.7
	c-1.4,5.6-5.2,5.3-5.2,5.3c-5,0-13.1-9.2-13.1-9.2c-21-16.8-39.1-60.5-39.1-60.5c-4.9-15.1-11.2-47.7-15.4-61.8
	c-1.2-4,2.4-8,6.4-6.9c0.3,0.1,0.6,0.2,0.8,0.3c0,0,9.9,37.8,20.7,40.1c0,0,11.8,2,40.4,1.6c0,0,40.8,2,49.7-10.9
	c0,0,3.3-2.6,12.5-29.9c0,0,1.5-5.6,6.8-5.6h2c5.3,0,6.8,5.6,6.8,5.6c9.2,27.3,12.5,29.9,12.5,29.9c8.9,12.8,49.7,10.9,49.7,10.9
	c28.6,0.3,40.4-1.6,40.4-1.6c10.9-2.3,20.7-40.1,20.7-40.1c0.2-0.1,0.5-0.2,0.8-0.3c4-1.1,7.6,2.9,6.4,6.9
	c-4.2,14.2-10.5,46.7-15.4,61.8c0,0-18.1,43.7-39.1,60.5c0,0-8.2,9.2-13.1,9.2c0,0-3.7,0.4-5.2-5.3c-2.8-10.9-9.2-20.5-18.6-26.7
	c-4.6-3-10.3-6.2-17.4-9.5c0,0-8.7-3.9-28.5-3.6H293.3z"/>
<path class="st2" d="M121.5,340.3c0,0-10.1-42.8-3.8-49.4c0,0,2.7-3.7,11.6-4.1c3-0.1,5.5,2.1,5.7,5.1c0.9,11.7,2.4,40.8-3.8,50.3
	C131.3,342.2,122.8,346.2,121.5,340.3z"/>
<path class="st2" d="M135.9,350.7c0,0,0.1,0.1,0.1,0.1c0,0,11.1,19.9,3.2,22.6c0,0-8.8,4.9-10.5-12.5v-7.7
	C128.7,349.3,133.6,347.6,135.9,350.7z"/>
<path class="st2" d="M467.6,340.3c0,0,10.1-42.8,3.8-49.4c0,0-2.7-3.7-11.6-4.1c-3-0.1-5.5,2.1-5.7,5.1c-0.9,11.7-2.4,40.8,3.8,50.3
	C457.8,342.2,466.3,346.2,467.6,340.3z"/>
<path class="st2" d="M453.2,350.7c0,0-0.1,0.1-0.1,0.1c0,0-11.1,19.9-3.2,22.6c0,0,8.8,4.9,10.5-12.5v-7.7
	C460.4,349.3,455.5,347.6,453.2,350.7z"/>
<path class="st2" d="M294.3,465.1c-8.9-0.3-10.5,8.9-10.5,8.9c-3.4,13.9-13.5,12.8-13.5,12.8c-21.1,0-24-25.2-24-25.2
	s-2.1-25.4,20.2-33.3c0,0,11.8-3.7,27.8-3.4h1.5c16-0.3,27.8,3.4,27.8,3.4c22.3,7.9,20.2,33.3,20.2,33.3s-2.8,25.2-24,25.2
	c0,0-10.1,1-13.5-12.8c0,0-1.6-9.2-10.5-8.9H294.3z"/>
<path class="st0" d="M251.8,293.7c1-6.9-4.2-10.5-11.3-13l2.3-9.3l-5.6-1.4l-2.3,9c-1.5-0.4-3-0.7-4.5-1.1l2.3-9.1l-5.6-1.4
	l-2.3,9.3c-1.2-0.3-2.4-0.6-3.6-0.8l0,0l-7.8-1.9l-1.5,6c0,0,4.2,1,4.1,1c2.3,0.6,2.7,2.1,2.6,3.3l-2.6,10.6c0.2,0,0.4,0.1,0.6,0.2
	c-0.2,0-0.4-0.1-0.6-0.1l-3.7,14.8c-0.3,0.7-1,1.7-2.6,1.3c0.1,0.1-4.1-1-4.1-1l-2.8,6.5l7.4,1.8c1.4,0.3,2.7,0.7,4,1l-2.3,9.4
	l5.6,1.4l2.3-9.3c1.5,0.4,3,0.8,4.5,1.2l-2.3,9.2l5.6,1.4l2.3-9.4c9.6,1.8,16.9,1.1,19.9-7.6c2.5-7-0.1-11.1-5.2-13.7
	C248.3,301.2,251,298.7,251.8,293.7z M238.9,311.8c-1.7,7-13.6,3.2-17.4,2.3l3.1-12.4C228.4,302.6,240.7,304.5,238.9,311.8z
	 M240.6,293.6c-1.6,6.4-11.4,3.1-14.6,2.3l2.8-11.3C232,285.5,242.3,287,240.6,293.6z"/>
<path class="st0" d="M386.1,293.7c1-6.9-4.2-10.5-11.3-13l2.3-9.3l-5.6-1.4l-2.3,9c-1.5-0.4-3-0.7-4.5-1.1l2.3-9.1l-5.6-1.4
	l-2.3,9.3c-1.2-0.3-2.4-0.6-3.6-0.8l0,0l-7.8-1.9l-1.5,6c0,0,4.2,1,4.1,1c2.3,0.6,2.7,2.1,2.6,3.3l-2.6,10.6c0.2,0,0.4,0.1,0.6,0.2
	c-0.2,0-0.4-0.1-0.6-0.1l-3.7,14.8c-0.3,0.7-1,1.7-2.6,1.3c0.1,0.1-4.1-1-4.1-1l-2.8,6.5l7.4,1.8c1.4,0.3,2.7,0.7,4,1l-2.3,9.4
	l5.6,1.4l2.3-9.3c1.5,0.4,3,0.8,4.5,1.2l-2.3,9.2l5.6,1.4l2.3-9.4c9.6,1.8,16.9,1.1,19.9-7.6c2.5-7-0.1-11.1-5.2-13.7
	C382.6,301.2,385.4,298.7,386.1,293.7z M373.2,311.8c-1.7,7-13.6,3.2-17.4,2.3l3.1-12.4C362.8,302.6,375,304.5,373.2,311.8z
	 M375,293.6c-1.6,6.4-11.4,3.1-14.6,2.3l2.8-11.3C366.4,285.5,376.6,287,375,293.6z"/>
<g>
	<defs>
		<circle id="SVGID_1_" cx="-574.4" cy="227.7" r="286.8"/>
	</defs>
	<clipPath id="SVGID_00000045603348717660281850000007671815910561214366_">
		<use xlink:href="#SVGID_1_"  style="overflow:visible;"/>
	</clipPath>
	<g style="clip-path:url(#SVGID_00000045603348717660281850000007671815910561214366_);">
		
			<image style="overflow:visible;" width="582" height="610" xlink:href="Desktop/Screen Shot 2025-03-28 at 5.34.44 pm.png"  transform="matrix(1.036 0 0 1.036 -885.2711 -87.1566)">
		</image>
	</g>
</g>
<path d="M-574.4,464.3c1.1,0,2.3,0,3.5-0.1c23.2-1.1,45.2-10.6,62.3-26.3c20.1-18.4,38.4-41.2,38.4-41.2
	c18.5-19.2,42.8-78.4,42.8-78.4c5.5,0.9,12.8-2.4,12.8-2.4c15.5-10.1,23.8-41.1,23.8-41.1c7-22.9,6.4-57.9,6.4-57.9
	c-2.7-18-23.1-17.7-23.1-17.7s-8.5,5.2-9.1-30.6c0,0,0-46.2-3.3-56.6c0,0-5.9-36.4-28.6-59.8c0,0-8-11.4-23.2-24.4
	c-27.6-23.8-63.1-36.7-99.6-36.7l0,0h-6.3l0,0c-36.5,0-71.9,12.8-99.6,36.7c-15.1,13-23.2,24.4-23.2,24.4
	c-22.8,23.4-28.6,59.8-28.6,59.8c-3.3,10.4-3.3,56.6-3.3,56.6c-0.7,35.8-9.1,30.6-9.1,30.6s-20.3-0.3-23.1,17.7
	c0,0-0.6,35.1,6.4,57.9c0,0,8.2,31.1,23.8,41.1c0,0,7.3,3.4,12.8,2.4c0,0,24.3,59.2,42.8,78.4c0,0,18.3,22.8,38.4,41.2
	c17.1,15.7,39.1,25.2,62.3,26.3L-574.4,464.3z"/>
<path class="st1" d="M-572.4,4.1h-3.8l0,0c-33.4,0-65.9,12.1-91.2,34.7c-13.9,12.3-21.2,23.1-21.2,23.1
	c-20.8,22.1-26.2,56.5-26.2,56.5c-3,9.8-3,53.5-3,53.5s-0.8,20.5,5,23.9c0,0,8.4,1.8,18,1.1c6.5-0.5,12.7-2.9,17.8-7
	c0.1-0.1,0.1-0.1,0.2-0.2c6.1-4.8,13.5-7.4,21.2-7.6c9-0.2,24.6-0.5,33.5-0.7c6.5-0.1,12.9,0.8,19,3.1c0.1,0,0.2,0.1,0.3,0.1
	c4.1,1.6,7.5,4.5,9.8,8.2c1.7,2.6,3.9,6.1,5.5,8.2c0,0,2.6,4.8,10,5.3h10.3c7.3-0.5,10-5.3,10-5.3c1.6-2.1,3.8-5.6,5.4-8.2
	c2.3-3.7,5.7-6.6,9.8-8.2c0.1,0,0.2-0.1,0.3-0.1c6.1-2.3,12.5-3.2,19-3.1l33.5,0.7c7.7,0.2,15.2,2.8,21.2,7.6
	c0.2,0.2,0.5,0.4,0.7,0.5c4.1,3.3,8.9,5.5,14.1,6.2c10.8,1.5,21.2-0.8,21.2-0.8c5.8-3.4,5-23.9,5-23.9s0-43.6-3-53.5
	c0,0-5.4-34.4-26.2-56.5c0,0-7.3-10.8-21.2-23.1c-25.3-22.5-57.8-34.7-91.2-34.7l0,0H-572.4"/>
<path class="st1" d="M-574.4,332.2c-19.8-0.3-28.5,3.6-28.5,3.6c-7.1,3.3-12.8,6.5-17.4,9.5c-9.4,6.1-15.8,15.8-18.6,26.7
	c-1.4,5.6-5.2,5.3-5.2,5.3c-5,0-13.1-9.2-13.1-9.2c-21-16.8-39.1-60.5-39.1-60.5c-4.9-15.1-11.2-47.7-15.4-61.8
	c-1.2-4,2.4-8,6.4-6.9c0.3,0.1,0.6,0.2,0.8,0.3c0,0,9.9,37.8,20.7,40.1c0,0,11.8,2,40.4,1.6c0,0,40.8,2,49.7-10.9
	c0,0,3.3-2.6,12.5-29.9c0,0,1.5-5.6,6.8-5.6h2c5.3,0,6.8,5.6,6.8,5.6c9.2,27.3,12.5,29.9,12.5,29.9c8.9,12.8,49.7,10.9,49.7,10.9
	c28.6,0.3,40.4-1.6,40.4-1.6c10.9-2.3,20.7-40.1,20.7-40.1c0.2-0.1,0.5-0.2,0.8-0.3c4-1.1,7.6,2.9,6.4,6.9
	c-4.2,14.2-10.5,46.7-15.4,61.8c0,0-18.1,43.7-39.1,60.5c0,0-8.2,9.2-13.1,9.2c0,0-3.7,0.4-5.2-5.3c-2.8-10.9-9.2-20.5-18.6-26.7
	c-4.6-3-10.3-6.2-17.4-9.5c0,0-8.7-3.9-28.5-3.6H-574.4z"/>
<path class="st1" d="M-746.2,270.4c0,0-10.1-42.8-3.8-49.4c0,0,2.7-3.7,11.6-4.1c3-0.1,5.5,2.1,5.7,5.1c0.9,11.7,2.4,40.8-3.8,50.3
	C-736.5,272.3-744.9,276.3-746.2,270.4z"/>
<path class="st1" d="M-731.9,280.8c0,0,0.1,0.1,0.1,0.1c0,0,11.1,19.9,3.2,22.6c0,0-8.8,4.9-10.5-12.5v-7.7
	C-739.1,279.5-734.2,277.7-731.9,280.8z"/>
<path class="st1" d="M-400.2,270.4c0,0,10.1-42.8,3.8-49.4c0,0-2.7-3.7-11.6-4.1c-3-0.1-5.5,2.1-5.7,5.1
	c-0.9,11.7-2.4,40.8,3.8,50.3C-410,272.3-401.5,276.3-400.2,270.4z"/>
<path class="st1" d="M-414.5,280.8c0,0-0.1,0.1-0.1,0.1c0,0-11.1,19.9-3.2,22.6c0,0,8.8,4.9,10.5-12.5v-7.7
	C-407.3,279.5-412.3,277.7-414.5,280.8z"/>
<path class="st1" d="M-573.4,395.2c-8.9-0.3-10.5,8.9-10.5,8.9c-3.4,13.9-13.5,12.8-13.5,12.8c-21.1,0-24-25.2-24-25.2
	s-2.1-25.4,20.2-33.3c0,0,11.8-3.7,27.8-3.4h1.5c16-0.3,27.8,3.4,27.8,3.4c22.3,7.9,20.2,33.3,20.2,33.3s-2.8,25.2-24,25.2
	c0,0-10.1,1-13.5-12.8c0,0-1.6-9.2-10.5-8.9H-573.4z"/>
<path class="st0" d="M-616,223.9c1-6.9-4.2-10.5-11.3-13l2.3-9.3l-5.6-1.4l-2.3,9c-1.5-0.4-3-0.7-4.5-1.1l2.3-9.1l-5.6-1.4l-2.3,9.3
	c-1.2-0.3-2.4-0.6-3.6-0.8l0,0l-7.8-1.9l-1.5,6c0,0,4.2,1,4.1,1c2.3,0.6,2.7,2.1,2.6,3.3l-2.6,10.6c0.2,0,0.4,0.1,0.6,0.2
	c-0.2,0-0.4-0.1-0.6-0.1l-3.7,14.8c-0.3,0.7-1,1.7-2.6,1.3c0.1,0.1-4.1-1-4.1-1l-2.8,6.5l7.4,1.8c1.4,0.3,2.7,0.7,4,1l-2.3,9.4
	l5.6,1.4l2.3-9.3c1.5,0.4,3,0.8,4.5,1.2l-2.3,9.2l5.6,1.4l2.3-9.4c9.6,1.8,16.9,1.1,19.9-7.6c2.5-7-0.1-11.1-5.2-13.7
	C-619.5,231.3-616.7,228.9-616,223.9z M-628.9,242c-1.7,7-13.6,3.2-17.4,2.3l3.1-12.4C-639.3,232.8-627.1,234.6-628.9,242z
	 M-627.1,223.8c-1.6,6.4-11.4,3.1-14.6,2.3l2.8-11.3C-635.8,215.6-625.5,217.1-627.1,223.8z"/>
<path class="st0" d="M-481.6,223.9c1-6.9-4.2-10.5-11.3-13l2.3-9.3l-5.6-1.4l-2.3,9c-1.5-0.4-3-0.7-4.5-1.1l2.3-9.1l-5.6-1.4
	l-2.3,9.3c-1.2-0.3-2.4-0.6-3.6-0.8l0,0l-7.8-1.9l-1.5,6c0,0,4.2,1,4.1,1c2.3,0.6,2.7,2.1,2.6,3.3l-2.6,10.6c0.2,0,0.4,0.1,0.6,0.2
	c-0.2,0-0.4-0.1-0.6-0.1l-3.7,14.8c-0.3,0.7-1,1.7-2.6,1.3c0.1,0.1-4.1-1-4.1-1l-2.8,6.5l7.4,1.8c1.4,0.3,2.7,0.7,4,1l-2.3,9.4
	l5.6,1.4l2.3-9.3c1.5,0.4,3,0.8,4.5,1.2l-2.3,9.2l5.6,1.4l2.3-9.4c9.6,1.8,16.9,1.1,19.9-7.6c2.5-7-0.1-11.1-5.2-13.7
	C-485.2,231.3-482.4,228.9-481.6,223.9z M-494.5,242c-1.7,7-13.6,3.2-17.4,2.3l3.1-12.4C-505,232.8-492.7,234.6-494.5,242z
	 M-492.8,223.8c-1.6,6.4-11.4,3.1-14.6,2.3l2.8-11.3C-501.4,215.6-491.1,217.1-492.8,223.8z"/>
<image style="overflow:visible;" width="420" height="438" xlink:href="Desktop/Screen Shot 2025-03-28 at 5.34.51 pm.png"  transform="matrix(1.4982 0 0 1.4982 759.493 -317.3938)">
</image>
</svg>
